<?xml version="1.0" standalone="no"?>
<svg xmlns:xlink="http://www.w3.org/1999/xlink" id="wave" style="transform:rotate(180deg); transition: 0.3s" viewBox="0 0 1440 360" version="1.1" xmlns="http://www.w3.org/2000/svg"><defs><linearGradient id="sw-gradient-0" x1="0" x2="0" y1="1" y2="0"><stop stop-color="rgba(243, 106, 62, 1)" offset="0%"/><stop stop-color="rgba(255, 179, 11, 1)" offset="100%"/></linearGradient></defs><path style="transform:translate(0, 0px); opacity:1" fill="url(#sw-gradient-0)" d="M0,144L80,162C160,180,320,216,480,246C640,276,800,300,960,276C1120,252,1280,180,1440,180C1600,180,1760,252,1920,264C2080,276,2240,228,2400,204C2560,180,2720,180,2880,204C3040,228,3200,276,3360,270C3520,264,3680,204,3840,156C4000,108,4160,72,4320,72C4480,72,4640,108,4800,126C4960,144,5120,144,5280,156C5440,168,5600,192,5760,186C5920,180,6080,144,6240,150C6400,156,6560,204,6720,192C6880,180,7040,108,7200,90C7360,72,7520,108,7680,114C7840,120,8000,96,8160,72C8320,48,8480,24,8640,60C8800,96,8960,192,9120,228C9280,264,9440,240,9600,204C9760,168,9920,120,10080,90C10240,60,10400,48,10560,60C10720,72,10880,108,11040,126C11200,144,11360,144,11440,144L11520,144L11520,360L11440,360C11360,360,11200,360,11040,360C10880,360,10720,360,10560,360C10400,360,10240,360,10080,360C9920,360,9760,360,9600,360C9440,360,9280,360,9120,360C8960,360,8800,360,8640,360C8480,360,8320,360,8160,360C8000,360,7840,360,7680,360C7520,360,7360,360,7200,360C7040,360,6880,360,6720,360C6560,360,6400,360,6240,360C6080,360,5920,360,5760,360C5600,360,5440,360,5280,360C5120,360,4960,360,4800,360C4640,360,4480,360,4320,360C4160,360,4000,360,3840,360C3680,360,3520,360,3360,360C3200,360,3040,360,2880,360C2720,360,2560,360,2400,360C2240,360,2080,360,1920,360C1760,360,1600,360,1440,360C1280,360,1120,360,960,360C800,360,640,360,480,360C320,360,160,360,80,360L0,360Z"/><defs><linearGradient id="sw-gradient-1" x1="0" x2="0" y1="1" y2="0"><stop stop-color="rgba(234.865, 109.677, 69.47, 1)" offset="0%"/><stop stop-color="rgba(255, 179, 11, 1)" offset="100%"/></linearGradient></defs><path style="transform:translate(0, 50px); opacity:0.9" fill="url(#sw-gradient-1)" d="M0,324L80,318C160,312,320,300,480,300C640,300,800,312,960,270C1120,228,1280,132,1440,102C1600,72,1760,108,1920,114C2080,120,2240,96,2400,72C2560,48,2720,24,2880,54C3040,84,3200,168,3360,216C3520,264,3680,276,3840,258C4000,240,4160,192,4320,150C4480,108,4640,72,4800,84C4960,96,5120,156,5280,168C5440,180,5600,144,5760,132C5920,120,6080,132,6240,132C6400,132,6560,120,6720,126C6880,132,7040,156,7200,186C7360,216,7520,252,7680,270C7840,288,8000,288,8160,294C8320,300,8480,312,8640,300C8800,288,8960,252,9120,228C9280,204,9440,192,9600,168C9760,144,9920,108,10080,96C10240,84,10400,96,10560,120C10720,144,10880,180,11040,216C11200,252,11360,288,11440,306L11520,324L11520,360L11440,360C11360,360,11200,360,11040,360C10880,360,10720,360,10560,360C10400,360,10240,360,10080,360C9920,360,9760,360,9600,360C9440,360,9280,360,9120,360C8960,360,8800,360,8640,360C8480,360,8320,360,8160,360C8000,360,7840,360,7680,360C7520,360,7360,360,7200,360C7040,360,6880,360,6720,360C6560,360,6400,360,6240,360C6080,360,5920,360,5760,360C5600,360,5440,360,5280,360C5120,360,4960,360,4800,360C4640,360,4480,360,4320,360C4160,360,4000,360,3840,360C3680,360,3520,360,3360,360C3200,360,3040,360,2880,360C2720,360,2560,360,2400,360C2240,360,2080,360,1920,360C1760,360,1600,360,1440,360C1280,360,1120,360,960,360C800,360,640,360,480,360C320,360,160,360,80,360L0,360Z"/></svg>