<?xml version="1.0" standalone="no"?><svg xmlns="http://www.w3.org/2000/svg" viewBox="0 0 1440 320"><path fill="#a2d9ff" fill-opacity="1" d="M0,64L34.3,58.7C68.6,53,137,43,206,58.7C274.3,75,343,117,411,122.7C480,128,549,96,617,101.3C685.7,107,754,149,823,165.3C891.4,181,960,171,1029,149.3C1097.1,128,1166,96,1234,96C1302.9,96,1371,128,1406,144L1440,160L1440,320L1405.7,320C1371.4,320,1303,320,1234,320C1165.7,320,1097,320,1029,320C960,320,891,320,823,320C754.3,320,686,320,617,320C548.6,320,480,320,411,320C342.9,320,274,320,206,320C137.1,320,69,320,34,320L0,320Z"></path></svg>